<mxfile host="65bd71144e">
    <diagram id="k0b2s7g_NIttxudkrJ2a" name="Page-1">
        <mxGraphModel dx="411" dy="384" grid="1" gridSize="10" guides="1" tooltips="1" connect="1" arrows="1" fold="1" page="1" pageScale="1" pageWidth="827" pageHeight="1169" math="0" shadow="0">
            <root>
                <mxCell id="0"/>
                <mxCell id="1" parent="0"/>
                <mxCell id="2" value="Vehicle" style="swimlane;fontStyle=1;align=center;verticalAlign=top;childLayout=stackLayout;horizontal=1;startSize=26;horizontalStack=0;resizeParent=1;resizeParentMax=0;resizeLast=0;collapsible=1;marginBottom=0;" vertex="1" parent="1">
                    <mxGeometry x="250" y="200" width="460" height="330" as="geometry"/>
                </mxCell>
                <mxCell id="4" value="" style="line;strokeWidth=1;fillColor=none;align=left;verticalAlign=middle;spacingTop=-1;spacingLeft=3;spacingRight=3;rotatable=0;labelPosition=right;points=[];portConstraint=eastwest;strokeColor=inherit;" vertex="1" parent="2">
                    <mxGeometry y="26" width="460" height="8" as="geometry"/>
                </mxCell>
                <mxCell id="3" value="- licensePlate: string&#10;- color: string&#10;- doors: number&#10;- speed: number&#10;- maxSpeed: number" style="text;strokeColor=none;fillColor=none;align=left;verticalAlign=top;spacingLeft=4;spacingRight=4;overflow=hidden;rotatable=0;points=[[0,0.5],[1,0.5]];portConstraint=eastwest;" vertex="1" parent="2">
                    <mxGeometry y="34" width="460" height="120" as="geometry"/>
                </mxCell>
                <mxCell id="5" value="+ constructor(licensePlate,: string, color: string, doors: number, maxSpeed: number)&#10;+ getLicensePlate(): string&#10;+ setLicensePLate(LicensePlate: string): void&#10;+ getColor(): string&#10;+ setColor(color: string): void&#10;+ getDoors: number&#10;+ getSpeed(): number&#10;+ getMaxSpeed(): numberÂ &#10;+ accelerate(accelerationPower: number, acceleration: number): void&#10;+ break(breakPower: number, breakTime: number): void&#10;+ status(): string" style="text;strokeColor=none;fillColor=none;align=left;verticalAlign=top;spacingLeft=4;spacingRight=4;overflow=hidden;rotatable=0;points=[[0,0.5],[1,0.5]];portConstraint=eastwest;" vertex="1" parent="2">
                    <mxGeometry y="154" width="460" height="176" as="geometry"/>
                </mxCell>
            </root>
        </mxGraphModel>
    </diagram>
</mxfile>